<svg xmlns="http://www.w3.org/2000/svg" id="Group_468" data-name="Group 468" width="162.652" height="116.642" viewBox="0 0 162.652 116.642"><path id="Path_7230" data-name="Path 7230" d="M103.8,53.422A50.379,50.379,0,1,1,53.422,3.043,50.377,50.377,0,0,1,103.8,53.422" transform="translate(4.9 4.9)" fill="none"></path><path id="Path_7231" data-name="Path 7231" d="M61.538,10.269a3.73,3.73,0,0,0-2.663-1.146h-.037a3.784,3.784,0,0,0-2.822,1.289c-.016-.005-.031.026-.047.021l0,.023a36.9,36.9,0,0,0-12.438-2.2A36.371,36.371,0,0,0,9.666,30.718h2.185A34.679,34.679,0,0,1,55.112,12.276a3.041,3.041,0,0,0-.052.517A3.722,3.722,0,0,0,58.8,16.557h.039a3.76,3.76,0,0,0,3.777-3.707A3.53,3.53,0,0,0,61.538,10.269Zm-1.712,4.109a1.863,1.863,0,0,1-1.01.316,1.771,1.771,0,0,1-1.736-1.634c0-.052-.013-.136-.013-.191a1.907,1.907,0,0,1,1.044-1.621h0c.227,0,.478-.133.747-.133a1.786,1.786,0,0,1,1.248.548,1.832,1.832,0,0,1,.444.809,1.951,1.951,0,0,1,.063.462,1.789,1.789,0,0,1-.77,1.441C59.988,14.453,59.972,14.456,59.826,14.377Z" transform="translate(15.565 13.295)" fill="#4693ff"></path><path id="Path_7232" data-name="Path 7232" d="M77.152,30.792H74.975A35.932,35.932,0,0,1,62.811,44.216a34.567,34.567,0,0,1-18.742,5.476A34.962,34.962,0,0,1,11.453,26.9H9.331A36.741,36.741,0,0,0,63.9,45.916a36.869,36.869,0,0,0,13.31-15.082Z" transform="translate(15.026 43.313)" fill="#4693ff"></path><g id="Group_465" data-name="Group 465" transform="translate(109.761 46.273)"><path id="Path_7233" data-name="Path 7233" d="M45.829,18.243h-3.78V37.094h12.17V34.18h-8.39Z" transform="translate(-42.049 -16.896)" fill="#4693ff"></path><path id="Path_7234" data-name="Path 7234" d="M55.264,30.109a2.576,2.576,0,0,1-1.049,1.141,3.254,3.254,0,0,1-1.772.491,1.8,1.8,0,0,1-1.269-.425,1.452,1.452,0,0,1-.467-1.128,1.952,1.952,0,0,1,.621-1.457,2.522,2.522,0,0,1,1.825-.6h2.112Zm4.414,4.156a9.216,9.216,0,0,1-.472-1.72,10.961,10.961,0,0,1-.149-1.851V24.9a4.418,4.418,0,0,0-1.566-3.631A6.25,6.25,0,0,0,53.414,20a6.717,6.717,0,0,0-4.286,1.287,3.549,3.549,0,0,0-1.54,3.062l.013.078,3.649.013a1.578,1.578,0,0,1,.5-1.237,2.479,2.479,0,0,1,2.984.11,2.178,2.178,0,0,1,.533,1.566v1.115H53.153a7.926,7.926,0,0,0-4.628,1.133,3.693,3.693,0,0,0-1.584,3.192,4.064,4.064,0,0,0,1.19,3.088,4.731,4.731,0,0,0,3.391,1.133,3.831,3.831,0,0,0,2.274-.673,5.229,5.229,0,0,0,1.535-1.7,6.915,6.915,0,0,0,.211,1.089,8.326,8.326,0,0,0,.358,1.008Z" transform="translate(-34.173 -14.068)" fill="#4693ff"></path><path id="Path_7235" data-name="Path 7235" d="M61.345,31.311a6.053,6.053,0,0,1-.585,2.937,2.146,2.146,0,0,1-2.044,1.036,3.106,3.106,0,0,1-1.509-.339,2.416,2.416,0,0,1-.966-.976V28a2.591,2.591,0,0,1,.958-1.06,2.812,2.812,0,0,1,1.49-.371,2.109,2.109,0,0,1,2.052,1.2,7.373,7.373,0,0,1,.6,3.263Zm3.767,0v-.271a9.241,9.241,0,0,0-1.4-5.367,4.639,4.639,0,0,0-4.064-2.013,4.1,4.1,0,0,0-1.95.452A4.314,4.314,0,0,0,56.242,25.4V17.727H52.475v20.2h3.237L56,36.19a4.425,4.425,0,0,0,1.548,1.5,4.3,4.3,0,0,0,2.13.512,4.726,4.726,0,0,0,4.038-1.879,8.191,8.191,0,0,0,1.4-5.009" transform="translate(-25.26 -17.727)" fill="#4693ff"></path><path id="Path_7236" data-name="Path 7236" d="M65.415,31.534a2.615,2.615,0,0,1-1.6.415,3.052,3.052,0,0,1-1.827-.506,1.967,1.967,0,0,1-.736-1.631H57.8l-.026.078a3.964,3.964,0,0,0,1.548,3.229,6.485,6.485,0,0,0,4.422,1.42,7.015,7.015,0,0,0,4.273-1.2,3.683,3.683,0,0,0,1.618-3.088,3.347,3.347,0,0,0-1.256-2.764,9.054,9.054,0,0,0-3.848-1.522A6.045,6.045,0,0,1,62.3,25.23a1.275,1.275,0,0,1-.551-1.062,1.409,1.409,0,0,1,.525-1.12,2.581,2.581,0,0,1,3.018.084,1.851,1.851,0,0,1,.538,1.373h3.649l.026-.078a3.708,3.708,0,0,0-1.522-3.172A6.68,6.68,0,0,0,63.713,20a6.186,6.186,0,0,0-4.072,1.261,3.866,3.866,0,0,0-1.522,3.075,3.248,3.248,0,0,0,1.263,2.7,8.987,8.987,0,0,0,3.748,1.5,6.178,6.178,0,0,1,2.234.8,1.339,1.339,0,0,1,.05,2.2" transform="translate(-16.74 -14.068)" fill="#4693ff"></path></g><g id="Group_466" data-name="Group 466" transform="translate(11.608 47.62)"><path id="Path_7237" data-name="Path 7237" d="M17.148,18.243l-4.1,13.866-.22,1h-.078l-.234-1.023L8.435,18.243H4.447l6.4,18.851h3.884l6.409-18.851Z" transform="translate(-4.447 -18.243)" fill="#fff"></path><path id="Path_7238" data-name="Path 7238" d="M22.108,21.991A6.043,6.043,0,0,0,17.292,20a6.124,6.124,0,0,0-4.858,2,7.519,7.519,0,0,0-1.765,5.135V27.4a7.506,7.506,0,0,0,1.8,5.145,6.189,6.189,0,0,0,4.881,1.989,5.936,5.936,0,0,0,4.759-1.989A7.434,7.434,0,0,0,23.769,27.4v-.271A7.427,7.427,0,0,0,22.108,21.991ZM20.229,27.4a6.023,6.023,0,0,1-.7,3.065,2.314,2.314,0,0,1-2.151,1.164,2.3,2.3,0,0,1-2.159-1.159,6.077,6.077,0,0,1-.655-3.07v-.271a6.021,6.021,0,0,1,.658-3.031,2.276,2.276,0,0,1,2.133-1.182,2.344,2.344,0,0,1,2.174,1.175,5.988,5.988,0,0,1,.7,3.038Z" transform="translate(5.574 -15.415)" fill="#fff"></path><path id="Path_7239" data-name="Path 7239" d="M19.939,20.1H15.875l4.973,13.994-.441,1.089a3.048,3.048,0,0,1-.778,1.146,2.062,2.062,0,0,1-1.436.459,2.487,2.487,0,0,1-.35-.026c-.131-.016-.251-.034-.363-.052l-.441,2.759c.389.094.72.167.992.219a4.7,4.7,0,0,0,.888.078,4.147,4.147,0,0,0,3.067-1.028A7.416,7.416,0,0,0,23.6,36.2L29.287,20.1H25.223L22.542,29h-.078l-.154-.775Z" transform="translate(13.956 -15.255)" fill="#fff"></path><path id="Path_7240" data-name="Path 7240" d="M33.2,32.466a9.878,9.878,0,0,1-.206-1.772V24.9a4.38,4.38,0,0,0-1.509-3.631A6.171,6.171,0,0,0,27.434,20a6.671,6.671,0,0,0-4.27,1.287,3.55,3.55,0,0,0-1.535,3.062l.018.078,3.652.013a1.571,1.571,0,0,1,.5-1.237,2.051,2.051,0,0,1,1.417-.446,1.822,1.822,0,0,1,1.459.556,2.147,2.147,0,0,1,.423,1.566v1.091H27.2a7.922,7.922,0,0,0-4.628,1.143,3.711,3.711,0,0,0-1.587,3.2,4.072,4.072,0,0,0,1.19,3.093,4.742,4.742,0,0,0,3.393,1.133,3.823,3.823,0,0,0,2.271-.673,5.165,5.165,0,0,0,1.535-1.694,6.2,6.2,0,0,0,.214,1.01,8.864,8.864,0,0,0,.358.932h3.78A13.66,13.66,0,0,1,33.2,32.466Zm-4.1-2.357c0,.433-.423.812-.94,1.141a3.085,3.085,0,0,1-1.72.491,1.738,1.738,0,0,1-1.243-.425,1.451,1.451,0,0,1-.454-1.128,2,2,0,0,1,.629-1.475,2.554,2.554,0,0,1,1.832-.619h1.9Z" transform="translate(22.191 -15.415)" fill="#fff"></path><path id="Path_7241" data-name="Path 7241" d="M35.744,19.98l-.3,1.942a4.369,4.369,0,0,0-1.527-1.438,3.953,3.953,0,0,0-2.073-.493,4.776,4.776,0,0,0-4.09,2.052,9.1,9.1,0,0,0-1.49,5.367v.271a8.033,8.033,0,0,0,1.49,4.991,4.814,4.814,0,0,0,4.043,1.9,4.147,4.147,0,0,0,1.892-.415,3.657,3.657,0,0,0,1.425-1.2v1.269a2.542,2.542,0,0,1-.684,2.018,3.3,3.3,0,0,1-2.261.65,8.468,8.468,0,0,1-1.95-.214,8.757,8.757,0,0,1-1.759-.629l-.7,2.822a10.38,10.38,0,0,0,2.2.8,9.418,9.418,0,0,0,2.253.292,7.575,7.575,0,0,0,4.994-1.5,5.2,5.2,0,0,0,1.8-4.226V19.98Zm-.626,10.426c-.355.407-.514.718-.916.929a2.991,2.991,0,0,1-1.446.321,2.119,2.119,0,0,1-1.994-1.062,5.775,5.775,0,0,1-.6-2.911v-.274a7.018,7.018,0,0,1,.632-3.229,2.122,2.122,0,0,1,2.02-1.237,2.616,2.616,0,0,1,1.391.35c.4.235.559.566.914.989Z" transform="translate(30.689 -15.445)" fill="#fff"></path><path id="Path_7242" data-name="Path 7242" d="M44.218,28.094V26.329a6.573,6.573,0,0,0-1.548-4.623A5.651,5.651,0,0,0,38.277,20a5.826,5.826,0,0,0-4.667,2,7.7,7.7,0,0,0-1.783,5.142v.517A7,7,0,0,0,33.712,32.6a6.386,6.386,0,0,0,4.876,1.942,9.829,9.829,0,0,0,3.1-.462,7.059,7.059,0,0,0,2.247-1.164l-1.018-2.336a9.591,9.591,0,0,1-1.812.8,7.294,7.294,0,0,1-2.083.253,2.893,2.893,0,0,1-2.232-.89,4.069,4.069,0,0,1-.927-2.417l.026-.224Zm-7.588-4.38a1.969,1.969,0,0,1,1.658-.8,1.8,1.8,0,0,1,1.587.718,3.016,3.016,0,0,1,.449,1.924v.06H35.917l-.039.073A3.7,3.7,0,0,1,36.63,23.714Z" transform="translate(39.644 -15.415)" fill="#fff"></path><path id="Path_7243" data-name="Path 7243" d="M45.031,20.153q-.247-.063-.486-.11A2.958,2.958,0,0,0,44.021,20a2.844,2.844,0,0,0-1.806.613,4.43,4.43,0,0,0-1.276,1.715l-.167-2.07H37.263V34.264H41.03V24.8a2.217,2.217,0,0,1,.83-.984,2.518,2.518,0,0,1,1.383-.35l1.386.039Z" transform="translate(48.397 -15.415)" fill="#fff"></path></g><g id="Group_467" data-name="Group 467" transform="translate(100.928 23.166)"><path id="Path_7244" data-name="Path 7244" d="M38.665,8.875h0Z" transform="translate(-38.665 -8.875)" fill="none"></path></g><path id="Path_7245" data-name="Path 7245" d="M22.6,12.36v2.007A24.73,24.73,0,0,1,44.14,27.3h2.227A26.3,26.3,0,0,0,22.6,12.36Z" transform="translate(36.401 19.904)" fill="#37efb6"></path><path id="Path_7246" data-name="Path 7246" d="M36.919,39.038A24.115,24.115,0,0,1,16.034,26.9H13.75A26.393,26.393,0,0,0,36.919,41.045a26.032,26.032,0,0,0,13.287-3.626L49.18,35.686A24.012,24.012,0,0,1,36.919,39.038Z" transform="translate(22.142 43.313)" fill="#37efb6"></path><path id="Path_7247" data-name="Path 7247" d="M2.251,32.6h0Z" transform="translate(3.625 52.494)" fill="none"></path><path id="Path_7248" data-name="Path 7248" d="M8.643,48.99a3.8,3.8,0,0,0,1.013-2.54c0-.01,0-.023,0-.034l0-.063c0-.081-.005-.157-.01-.235,0-.05,0-.1-.008-.149l-.005-.031a3.7,3.7,0,0,0-.619-1.7c-.034-.047-.07-.091-.1-.138s-.063-.089-.1-.131a3.774,3.774,0,0,0-2.939-1.4c-.05,0-.1-.068-.146-.065a56.37,56.37,0,0,1-3.72-20.217H0A59.328,59.328,0,0,0,3.8,43.114a3.846,3.846,0,0,0-1.715,3.2c0,.136.01.29.023.423.005.057.018.123.026.178s.018.141.031.206c.016.086.039.172.063.258l.031.112c.029.091.06.183.1.271l.026.057a3.689,3.689,0,0,0,.326.608,3.778,3.778,0,0,0,4.226,1.551A58.5,58.5,0,0,0,26.424,71.227l1.1-1.66A56.3,56.3,0,0,1,8.643,48.99Zm-2.926-.762a1.63,1.63,0,0,1-1.177-.53,1.761,1.761,0,0,1-.506-1.258,1.783,1.783,0,0,1,1.783-1.754,1.73,1.73,0,0,1,1.707,1.791A1.764,1.764,0,0,1,5.717,48.227Z" transform="translate(0 35.888)" fill="#8269e3"></path><path id="Path_7249" data-name="Path 7249" d="M77.134,27.313A56.508,56.508,0,0,1,58.723,57.264a56.171,56.171,0,0,1-36.39,13.388v2.007A58.412,58.412,0,0,0,60.021,58.8,58.208,58.208,0,0,0,79.2,27.313Z" transform="translate(35.963 43.983)" fill="#8269e3"></path><path id="Path_7250" data-name="Path 7250" d="M78.28,41.718c-.018-.063-.034-.125-.052-.183h-.005a58.043,58.043,0,0,0-9.911-19.173c.021-.034.037-.07.055-.1A3.779,3.779,0,0,0,65.142,16.5a4.068,4.068,0,0,0-1.72.381A58.754,58.754,0,0,0,22.333,0V2.007a56.327,56.327,0,0,1,39.575,16.2,3.719,3.719,0,0,0-.587,2.078A3.8,3.8,0,0,0,66.745,23.7c.021.026.047.052.065.076a56.346,56.346,0,0,1,9.345,17.938ZM64.986,22.162a1.64,1.64,0,0,1-1.177-.53,1.761,1.761,0,0,1-.506-1.258,1.783,1.783,0,0,1,1.783-1.754,1.726,1.726,0,0,1,1.7,1.791A1.761,1.761,0,0,1,64.986,22.162Z" transform="translate(35.963)" fill="#8269e3"></path></svg>